# MagicaVoxel @ Ephtracy

# material
mtllib House.mtl
usemtl palette

# normals
vn -1 0 0
vn 1 0 0
vn 0 0 1
vn 0 0 -1
vn 0 -1 0
vn 0 1 0

# texcoords
vt 0.142578 0.5
vt 0.373047 0.5
vt 0.560547 0.5
vt 0.865234 0.5
vt 0.958984 0.5
vt 0.966797 0.5
vt 0.982422 0.5
vt 0.986328 0.5
vt 0.990234 0.5

# verts
v -8 0 5
v -8 0 -5
v -8 5 6
v -8 5 5
v -8 5 4
v -8 5 -4
v -8 5 -5
v -8 5 -6
v -8 6 6
v -8 6 5
v -8 6 4
v -8 6 3
v -8 6 -3
v -8 6 -4
v -8 6 -5
v -8 6 -6
v -8 7 5
v -8 7 4
v -8 7 3
v -8 7 2
v -8 7 -2
v -8 7 -3
v -8 7 -4
v -8 7 -5
v -8 8 4
v -8 8 3
v -8 8 2
v -8 8 1
v -8 8 -1
v -8 8 -2
v -8 8 -3
v -8 8 -4
v -8 9 3
v -8 9 2
v -8 9 1
v -8 9 -1
v -8 9 -2
v -8 9 -3
v -8 10 2
v -8 10 1
v -8 10 -1
v -8 10 -2
v -8 11 1
v -8 11 -1
v -6 8 -3
v -6 8 -4
v -6 9 -2
v -6 9 -3
v -6 10 -2
v -6 12 -2
v -6 12 -4
v -4 8 -3
v -4 8 -4
v -4 9 -2
v -4 9 -3
v -4 10 -2
v -4 12 -2
v -4 12 -4
v 8 0 5
v 8 0 -5
v 8 2 -1
v 8 2 -4
v 8 4 -1
v 8 4 -4
v 8 5 6
v 8 5 5
v 8 5 4
v 8 5 -4
v 8 5 -5
v 8 5 -6
v 8 6 6
v 8 6 5
v 8 6 4
v 8 6 3
v 8 6 -3
v 8 6 -4
v 8 6 -5
v 8 6 -6
v 8 7 5
v 8 7 4
v 8 7 3
v 8 7 2
v 8 7 -2
v 8 7 -3
v 8 7 -4
v 8 7 -5
v 8 8 4
v 8 8 3
v 8 8 2
v 8 8 1
v 8 8 -1
v 8 8 -2
v 8 8 -3
v 8 8 -4
v 8 9 3
v 8 9 2
v 8 9 1
v 8 9 -1
v 8 9 -2
v 8 9 -3
v 8 10 2
v 8 10 1
v 8 10 -1
v 8 10 -2
v 8 11 1
v 8 11 -1
v -8 5 6
v -8 6 6
v 8 5 6
v 8 6 6
v -8 0 5
v -8 5 5
v -8 6 5
v -8 7 5
v -7 2 5
v -7 4 5
v -5 2 5
v -5 4 5
v -2 0 5
v -2 4 5
v 0 1 5
v 0 2 5
v 1 0 5
v 1 1 5
v 1 2 5
v 1 4 5
v 5 2 5
v 5 4 5
v 7 2 5
v 7 4 5
v 8 0 5
v 8 5 5
v 8 6 5
v 8 7 5
v -8 7 4
v -8 8 4
v 8 7 4
v 8 8 4
v -8 8 3
v -8 9 3
v 8 8 3
v 8 9 3
v -8 9 2
v -8 10 2
v 8 9 2
v 8 10 2
v -8 10 1
v -8 11 1
v 8 10 1
v 8 11 1
v -6 10 -2
v -6 12 -2
v -4 10 -2
v -4 12 -2
v -8 10 -1
v -8 11 -1
v 8 10 -1
v 8 11 -1
v -8 9 -2
v -8 10 -2
v -6 9 -2
v -6 10 -2
v -4 9 -2
v -4 10 -2
v 8 9 -2
v 8 10 -2
v -8 8 -3
v -8 9 -3
v -6 8 -3
v -6 9 -3
v -4 8 -3
v -4 9 -3
v 8 8 -3
v 8 9 -3
v -8 7 -4
v -8 8 -4
v -6 7 -4
v -6 8 -4
v -6 12 -4
v -4 7 -4
v -4 8 -4
v -4 12 -4
v 8 7 -4
v 8 8 -4
v -8 0 -5
v -8 5 -5
v -8 6 -5
v -8 7 -5
v 8 0 -5
v 8 5 -5
v 8 6 -5
v 8 7 -5
v -8 5 -6
v -8 6 -6
v 8 5 -6
v 8 6 -6
v -8 0 5
v -2 0 5
v 1 0 5
v 8 0 5
v -2 0 4
v 1 0 4
v -8 0 -5
v 8 0 -5
v -8 5 6
v 8 5 6
v -8 5 5
v 8 5 5
v -8 5 -5
v 8 5 -5
v -8 5 -6
v 8 5 -6
v -8 6 6
v 8 6 6
v -8 6 5
v 8 6 5
v -8 6 -5
v 8 6 -5
v -8 6 -6
v 8 6 -6
v -8 7 5
v 8 7 5
v -8 7 4
v 8 7 4
v -8 7 -4
v -6 7 -4
v -4 7 -4
v 8 7 -4
v -8 7 -5
v 8 7 -5
v -8 8 4
v 8 8 4
v -8 8 3
v 8 8 3
v -8 8 -3
v -6 8 -3
v -4 8 -3
v 8 8 -3
v -8 8 -4
v -6 8 -4
v -4 8 -4
v 8 8 -4
v -8 9 3
v 8 9 3
v -8 9 2
v 8 9 2
v -8 9 -2
v -6 9 -2
v -4 9 -2
v 8 9 -2
v -8 9 -3
v -6 9 -3
v -4 9 -3
v 8 9 -3
v -8 10 2
v 8 10 2
v -8 10 1
v 8 10 1
v -8 10 -1
v 8 10 -1
v -8 10 -2
v -6 10 -2
v -4 10 -2
v 8 10 -2
v -8 11 1
v 8 11 1
v -8 11 -1
v 8 11 -1
v -6 12 -2
v -4 12 -2
v -6 12 -4
v -4 12 -4

# faces
f 4/2/1 2/2/1 1/2/1
f 5/2/1 2/2/1 4/2/1
f 6/2/1 2/2/1 5/2/1
f 7/2/1 2/2/1 6/2/1
f 9/4/1 4/4/1 3/4/1
f 9/4/1 5/4/1 4/4/1
f 10/4/1 5/4/1 9/4/1
f 11/5/1 6/5/1 5/5/1
f 11/4/1 5/4/1 10/4/1
f 12/5/1 6/5/1 11/5/1
f 13/5/1 6/5/1 12/5/1
f 14/4/1 8/4/1 7/4/1
f 14/5/1 6/5/1 13/5/1
f 14/4/1 7/4/1 6/4/1
f 15/4/1 8/4/1 14/4/1
f 16/4/1 8/4/1 15/4/1
f 17/4/1 12/4/1 11/4/1
f 17/4/1 11/4/1 10/4/1
f 18/4/1 12/4/1 17/4/1
f 19/5/1 13/5/1 12/5/1
f 19/4/1 12/4/1 18/4/1
f 20/5/1 13/5/1 19/5/1
f 21/5/1 13/5/1 20/5/1
f 22/4/1 15/4/1 14/4/1
f 22/5/1 13/5/1 21/5/1
f 22/4/1 14/4/1 13/4/1
f 23/4/1 15/4/1 22/4/1
f 24/4/1 15/4/1 23/4/1
f 25/4/1 19/4/1 18/4/1
f 26/3/1 20/3/1 19/3/1
f 26/4/1 19/4/1 25/4/1
f 27/5/1 21/5/1 20/5/1
f 27/3/1 20/3/1 26/3/1
f 28/5/1 21/5/1 27/5/1
f 29/5/1 21/5/1 28/5/1
f 30/4/1 23/4/1 22/4/1
f 30/5/1 21/5/1 29/5/1
f 30/4/1 22/4/1 21/4/1
f 31/4/1 23/4/1 30/4/1
f 32/4/1 23/4/1 31/4/1
f 33/4/1 28/4/1 27/4/1
f 33/4/1 27/4/1 26/4/1
f 34/4/1 28/4/1 33/4/1
f 35/5/1 29/5/1 28/5/1
f 35/4/1 28/4/1 34/4/1
f 36/4/1 31/4/1 30/4/1
f 36/5/1 29/5/1 35/5/1
f 36/4/1 30/4/1 29/4/1
f 37/4/1 31/4/1 36/4/1
f 38/4/1 31/4/1 37/4/1
f 39/4/1 35/4/1 34/4/1
f 39/4/1 37/4/1 36/4/1
f 39/4/1 36/4/1 35/4/1
f 40/4/1 37/4/1 39/4/1
f 41/4/1 37/4/1 40/4/1
f 42/4/1 37/4/1 41/4/1
f 43/4/1 41/4/1 40/4/1
f 44/4/1 41/4/1 43/4/1
f 48/9/1 46/9/1 45/9/1
f 49/9/1 48/9/1 47/9/1
f 50/9/1 48/9/1 49/9/1
f 51/9/1 46/9/1 48/9/1
f 51/9/1 48/9/1 50/9/1
f 52/9/2 53/9/2 55/9/2
f 54/9/2 55/9/2 56/9/2
f 56/9/2 55/9/2 57/9/2
f 55/9/2 53/9/2 58/9/2
f 57/9/2 55/9/2 58/9/2
f 59/2/2 60/2/2 61/2/2
f 61/2/2 60/2/2 62/2/2
f 59/2/2 61/2/2 63/2/2
f 61/1/2 62/1/2 63/1/2
f 62/2/2 60/2/2 64/2/2
f 63/1/2 62/1/2 64/1/2
f 59/2/2 63/2/2 66/2/2
f 63/2/2 64/2/2 66/2/2
f 66/2/2 64/2/2 67/2/2
f 64/2/2 60/2/2 68/2/2
f 67/2/2 64/2/2 68/2/2
f 68/2/2 60/2/2 69/2/2
f 66/4/2 67/4/2 71/4/2
f 65/4/2 66/4/2 71/4/2
f 71/4/2 67/4/2 72/4/2
f 67/5/2 68/5/2 73/5/2
f 72/4/2 67/4/2 73/4/2
f 73/5/2 68/5/2 74/5/2
f 74/5/2 68/5/2 75/5/2
f 69/4/2 70/4/2 76/4/2
f 75/5/2 68/5/2 76/5/2
f 68/4/2 69/4/2 76/4/2
f 76/4/2 70/4/2 77/4/2
f 77/4/2 70/4/2 78/4/2
f 73/4/2 74/4/2 79/4/2
f 72/4/2 73/4/2 79/4/2
f 79/4/2 74/4/2 80/4/2
f 74/5/2 75/5/2 81/5/2
f 80/4/2 74/4/2 81/4/2
f 81/5/2 75/5/2 82/5/2
f 82/5/2 75/5/2 83/5/2
f 76/4/2 77/4/2 84/4/2
f 83/5/2 75/5/2 84/5/2
f 75/4/2 76/4/2 84/4/2
f 84/4/2 77/4/2 85/4/2
f 85/4/2 77/4/2 86/4/2
f 80/4/2 81/4/2 87/4/2
f 81/3/2 82/3/2 88/3/2
f 87/4/2 81/4/2 88/4/2
f 82/5/2 83/5/2 89/5/2
f 88/3/2 82/3/2 89/3/2
f 89/5/2 83/5/2 90/5/2
f 90/5/2 83/5/2 91/5/2
f 84/4/2 85/4/2 92/4/2
f 91/5/2 83/5/2 92/5/2
f 83/4/2 84/4/2 92/4/2
f 92/4/2 85/4/2 93/4/2
f 93/4/2 85/4/2 94/4/2
f 89/4/2 90/4/2 95/4/2
f 88/4/2 89/4/2 95/4/2
f 95/4/2 90/4/2 96/4/2
f 90/5/2 91/5/2 97/5/2
f 96/4/2 90/4/2 97/4/2
f 92/4/2 93/4/2 98/4/2
f 97/5/2 91/5/2 98/5/2
f 91/4/2 92/4/2 98/4/2
f 98/4/2 93/4/2 99/4/2
f 99/4/2 93/4/2 100/4/2
f 96/4/2 97/4/2 101/4/2
f 98/4/2 99/4/2 101/4/2
f 97/4/2 98/4/2 101/4/2
f 101/4/2 99/4/2 102/4/2
f 102/4/2 99/4/2 103/4/2
f 103/4/2 99/4/2 104/4/2
f 102/4/2 103/4/2 105/4/2
f 105/4/2 103/4/2 106/4/2
f 109/4/3 108/4/3 107/4/3
f 110/4/3 108/4/3 109/4/3
f 115/2/3 112/2/3 111/2/3
f 116/2/3 112/2/3 115/2/3
f 117/2/3 115/2/3 111/2/3
f 117/1/3 116/1/3 115/1/3
f 118/2/3 112/2/3 116/2/3
f 118/1/3 116/1/3 117/1/3
f 119/2/3 117/2/3 111/2/3
f 119/2/3 118/2/3 117/2/3
f 120/2/3 112/2/3 118/2/3
f 120/2/3 118/2/3 119/2/3
f 121/7/3 120/7/3 119/7/3
f 122/7/3 120/7/3 121/7/3
f 123/7/3 121/7/3 119/7/3
f 124/6/3 122/6/3 121/6/3
f 124/7/3 121/7/3 123/7/3
f 125/7/3 120/7/3 122/7/3
f 125/6/3 122/6/3 124/6/3
f 126/2/3 112/2/3 120/2/3
f 126/7/3 120/7/3 125/7/3
f 127/2/3 125/2/3 124/2/3
f 127/2/3 124/2/3 123/2/3
f 127/2/3 126/2/3 125/2/3
f 128/2/3 112/2/3 126/2/3
f 128/2/3 126/2/3 127/2/3
f 129/2/3 127/2/3 123/2/3
f 129/1/3 128/1/3 127/1/3
f 130/2/3 112/2/3 128/2/3
f 130/1/3 128/1/3 129/1/3
f 131/2/3 129/2/3 123/2/3
f 131/2/3 130/2/3 129/2/3
f 132/2/3 112/2/3 130/2/3
f 132/2/3 130/2/3 131/2/3
f 133/4/3 114/4/3 113/4/3
f 134/4/3 114/4/3 133/4/3
f 137/4/3 136/4/3 135/4/3
f 138/4/3 136/4/3 137/4/3
f 141/4/3 140/4/3 139/4/3
f 142/4/3 140/4/3 141/4/3
f 145/4/3 144/4/3 143/4/3
f 146/4/3 144/4/3 145/4/3
f 149/4/3 148/4/3 147/4/3
f 150/4/3 148/4/3 149/4/3
f 153/9/3 152/9/3 151/9/3
f 154/9/3 152/9/3 153/9/3
f 155/4/4 156/4/4 157/4/4
f 157/4/4 156/4/4 158/4/4
f 159/4/4 160/4/4 161/4/4
f 161/4/4 160/4/4 162/4/4
f 163/4/4 164/4/4 165/4/4
f 165/4/4 164/4/4 166/4/4
f 167/4/4 168/4/4 169/4/4
f 169/4/4 168/4/4 170/4/4
f 171/4/4 172/4/4 173/4/4
f 173/4/4 172/4/4 174/4/4
f 175/4/4 176/4/4 177/4/4
f 177/4/4 176/4/4 178/4/4
f 177/9/4 178/9/4 180/9/4
f 178/9/4 179/9/4 180/9/4
f 180/9/4 179/9/4 181/9/4
f 181/9/4 179/9/4 182/9/4
f 180/4/4 181/4/4 183/4/4
f 183/4/4 181/4/4 184/4/4
f 185/2/4 186/2/4 189/2/4
f 189/2/4 186/2/4 190/2/4
f 187/4/4 188/4/4 191/4/4
f 191/4/4 188/4/4 192/4/4
f 193/4/4 194/4/4 195/4/4
f 195/4/4 194/4/4 196/4/4
f 201/2/5 198/2/5 197/2/5
f 201/7/5 199/7/5 198/7/5
f 202/2/5 200/2/5 199/2/5
f 202/7/5 199/7/5 201/7/5
f 203/2/5 201/2/5 197/2/5
f 203/2/5 202/2/5 201/2/5
f 204/2/5 200/2/5 202/2/5
f 204/2/5 202/2/5 203/2/5
f 207/4/5 206/4/5 205/4/5
f 208/4/5 206/4/5 207/4/5
f 211/4/5 210/4/5 209/4/5
f 212/4/5 210/4/5 211/4/5
f 213/4/6 214/4/6 215/4/6
f 215/4/6 214/4/6 216/4/6
f 217/4/6 218/4/6 219/4/6
f 219/4/6 218/4/6 220/4/6
f 221/4/6 222/4/6 223/4/6
f 223/4/6 222/4/6 224/4/6
f 225/4/6 226/4/6 229/4/6
f 227/4/6 228/4/6 229/4/6
f 226/4/6 227/4/6 229/4/6
f 229/4/6 228/4/6 230/4/6
f 231/4/6 232/4/6 233/4/6
f 233/4/6 232/4/6 234/4/6
f 235/4/6 236/4/6 239/4/6
f 239/4/6 236/4/6 240/4/6
f 237/4/6 238/4/6 241/4/6
f 241/4/6 238/4/6 242/4/6
f 243/4/6 244/4/6 245/4/6
f 245/4/6 244/4/6 246/4/6
f 247/4/6 248/4/6 251/4/6
f 251/4/6 248/4/6 252/4/6
f 249/4/6 250/4/6 253/4/6
f 253/4/6 250/4/6 254/4/6
f 255/4/6 256/4/6 257/4/6
f 257/4/6 256/4/6 258/4/6
f 259/4/6 260/4/6 261/4/6
f 261/4/6 260/4/6 262/4/6
f 262/4/6 260/4/6 263/4/6
f 263/4/6 260/4/6 264/4/6
f 265/4/6 266/4/6 267/4/6
f 267/4/6 266/4/6 268/4/6
f 269/9/6 270/9/6 271/9/6
f 271/9/6 270/9/6 272/9/6
