# MagicaVoxel @ Ephtracy

# material
mtllib Market.mtl
usemtl palette

# normals
vn -1 0 0
vn 1 0 0
vn 0 0 1
vn 0 0 -1
vn 0 -1 0
vn 0 1 0

# texcoords
vt 0.00585938 0.5
vt 0.0683594 0.5
vt 0.341797 0.5
vt 0.470703 0.5
vt 0.853516 0.5
vt 0.900391 0.5
vt 0.958984 0.5
vt 0.962891 0.5
vt 0.970703 0.5
vt 0.982422 0.5
vt 0.986328 0.5

# verts
v -9 6 6
v -9 6 -6
v -9 7 6
v -9 7 -6
v -9 8 6
v -9 8 -6
v -9 9 6
v -9 9 -6
v -8 0 5
v -8 0 -5
v -8 6 5
v -8 6 -5
v -8 9 5
v -8 9 -5
v -8 11 4
v -8 11 -5
v -8 12 5
v -8 12 4
v -7 0 6
v -7 0 5
v -7 2 6
v -7 2 5
v -5 0 6
v -5 0 5
v -5 2 6
v -5 2 5
v 4 2 4
v 4 2 1
v 4 2 -1
v 4 2 -4
v 4 3 4
v 4 3 1
v 4 3 -1
v 4 3 -4
v 5 0 3
v 5 0 2
v 5 0 -2
v 5 0 -3
v 5 2 3
v 5 2 2
v 5 2 -2
v 5 2 -3
v -6 0 6
v -6 0 5
v -6 2 6
v -6 2 5
v -4 0 6
v -4 0 5
v -4 2 6
v -4 2 5
v 3 0 5
v 3 0 -5
v 3 2 3
v 3 2 -4
v 3 5 3
v 3 5 -4
v 3 6 5
v 3 6 -5
v 3 9 5
v 3 9 -5
v 3 11 4
v 3 11 -5
v 3 12 5
v 3 12 4
v 4 6 6
v 4 6 -6
v 4 7 6
v 4 7 -6
v 4 8 6
v 4 8 -6
v 4 9 6
v 4 9 -6
v 6 0 3
v 6 0 2
v 6 0 -2
v 6 0 -3
v 6 2 3
v 6 2 2
v 6 2 -2
v 6 2 -3
v 7 2 4
v 7 2 1
v 7 2 -1
v 7 2 -4
v 7 3 4
v 7 3 1
v 7 3 -1
v 7 3 -4
v -9 6 6
v -9 7 6
v -9 8 6
v -9 9 6
v -7 0 6
v -7 2 6
v -6 0 6
v -6 2 6
v -5 0 6
v -5 2 6
v -4 0 6
v -4 2 6
v 4 6 6
v 4 7 6
v 4 8 6
v 4 9 6
v -8 0 5
v -8 6 5
v -8 9 5
v -8 12 5
v -7 0 5
v -7 2 5
v -7 10 5
v -7 11 5
v -6 0 5
v -6 2 5
v -5 0 5
v -5 2 5
v -4 0 5
v -4 2 5
v -4 5 5
v -3 0 5
v -3 4 5
v -1 1 5
v -1 2 5
v 0 0 5
v 0 1 5
v 0 2 5
v 0 4 5
v 1 0 5
v 1 5 5
v 2 10 5
v 2 11 5
v 3 0 5
v 3 6 5
v 3 9 5
v 3 12 5
v 4 2 4
v 4 3 4
v 7 2 4
v 7 3 4
v 5 0 3
v 5 2 3
v 6 0 3
v 6 2 3
v 4 2 -1
v 4 3 -1
v 7 2 -1
v 7 3 -1
v 5 0 -2
v 5 2 -2
v 6 0 -2
v 6 2 -2
v -8 11 4
v -8 12 4
v 3 11 4
v 3 12 4
v 5 0 2
v 5 2 2
v 6 0 2
v 6 2 2
v 4 2 1
v 4 3 1
v 7 2 1
v 7 3 1
v 5 0 -3
v 5 2 -3
v 6 0 -3
v 6 2 -3
v 4 2 -4
v 4 3 -4
v 7 2 -4
v 7 3 -4
v -8 0 -5
v -8 6 -5
v -8 9 -5
v -8 11 -5
v 3 0 -5
v 3 6 -5
v 3 9 -5
v 3 11 -5
v -9 6 -6
v -9 7 -6
v -9 8 -6
v -9 9 -6
v 4 6 -6
v 4 7 -6
v 4 8 -6
v 4 9 -6
v -7 0 6
v -6 0 6
v -5 0 6
v -4 0 6
v -8 0 5
v -7 0 5
v -6 0 5
v -5 0 5
v -4 0 5
v -3 0 5
v 0 0 5
v 1 0 5
v 3 0 5
v -7 0 4
v -4 0 4
v -3 0 4
v 0 0 4
v 1 0 4
v 2 0 4
v 5 0 3
v 6 0 3
v 5 0 2
v 6 0 2
v 5 0 -2
v 6 0 -2
v 5 0 -3
v 6 0 -3
v -7 0 -4
v 2 0 -4
v -8 0 -5
v 3 0 -5
v 4 2 4
v 7 2 4
v 5 2 3
v 6 2 3
v 5 2 2
v 6 2 2
v 4 2 1
v 7 2 1
v 4 2 -1
v 7 2 -1
v 5 2 -2
v 6 2 -2
v 5 2 -3
v 6 2 -3
v 4 2 -4
v 7 2 -4
v -9 6 6
v 4 6 6
v -8 6 5
v 3 6 5
v -8 6 -5
v 3 6 -5
v -9 6 -6
v 4 6 -6
v -7 2 6
v -6 2 6
v -5 2 6
v -4 2 6
v -7 2 5
v -6 2 5
v -5 2 5
v -4 2 5
v 4 3 4
v 7 3 4
v 4 3 1
v 7 3 1
v 4 3 -1
v 7 3 -1
v 4 3 -4
v 7 3 -4
v -9 9 6
v 4 9 6
v -8 9 5
v 3 9 5
v -8 9 -5
v 3 9 -5
v -9 9 -6
v 4 9 -6
v -8 11 4
v 3 11 4
v -8 11 -5
v 3 11 -5
v -8 12 5
v 3 12 5
v -8 12 4
v 3 12 4

# faces
f 3/5/1 2/5/1 1/5/1
f 4/5/1 2/5/1 3/5/1
f 5/6/1 4/6/1 3/6/1
f 6/6/1 4/6/1 5/6/1
f 7/2/1 6/2/1 5/2/1
f 8/2/1 6/2/1 7/2/1
f 11/1/1 10/1/1 9/1/1
f 12/1/1 10/1/1 11/1/1
f 15/1/1 14/1/1 13/1/1
f 16/1/1 14/1/1 15/1/1
f 17/1/1 15/1/1 13/1/1
f 18/1/1 15/1/1 17/1/1
f 21/10/1 20/10/1 19/10/1
f 22/10/1 20/10/1 21/10/1
f 25/10/1 24/10/1 23/10/1
f 26/10/1 24/10/1 25/10/1
f 31/3/1 28/3/1 27/3/1
f 32/3/1 28/3/1 31/3/1
f 33/3/1 30/3/1 29/3/1
f 34/3/1 30/3/1 33/3/1
f 39/3/1 36/3/1 35/3/1
f 40/3/1 36/3/1 39/3/1
f 41/3/1 38/3/1 37/3/1
f 42/3/1 38/3/1 41/3/1
f 43/10/2 44/10/2 45/10/2
f 45/10/2 44/10/2 46/10/2
f 47/10/2 48/10/2 49/10/2
f 49/10/2 48/10/2 50/10/2
f 51/1/2 52/1/2 53/1/2
f 53/1/2 52/1/2 54/1/2
f 51/1/2 53/1/2 55/1/2
f 53/7/2 54/7/2 55/7/2
f 54/1/2 52/1/2 56/1/2
f 55/7/2 54/7/2 56/7/2
f 51/1/2 55/1/2 57/1/2
f 55/1/2 56/1/2 57/1/2
f 56/1/2 52/1/2 58/1/2
f 57/1/2 56/1/2 58/1/2
f 59/1/2 60/1/2 61/1/2
f 61/1/2 60/1/2 62/1/2
f 59/1/2 61/1/2 63/1/2
f 63/1/2 61/1/2 64/1/2
f 65/5/2 66/5/2 67/5/2
f 67/5/2 66/5/2 68/5/2
f 67/6/2 68/6/2 69/6/2
f 69/6/2 68/6/2 70/6/2
f 69/2/2 70/2/2 71/2/2
f 71/2/2 70/2/2 72/2/2
f 73/3/2 74/3/2 77/3/2
f 77/3/2 74/3/2 78/3/2
f 75/3/2 76/3/2 79/3/2
f 79/3/2 76/3/2 80/3/2
f 81/3/2 82/3/2 85/3/2
f 85/3/2 82/3/2 86/3/2
f 83/3/2 84/3/2 87/3/2
f 87/3/2 84/3/2 88/3/2
f 95/10/3 94/10/3 93/10/3
f 96/10/3 94/10/3 95/10/3
f 99/10/3 98/10/3 97/10/3
f 100/10/3 98/10/3 99/10/3
f 101/5/3 90/5/3 89/5/3
f 102/6/3 91/6/3 90/6/3
f 102/5/3 90/5/3 101/5/3
f 103/2/3 92/2/3 91/2/3
f 103/6/3 91/6/3 102/6/3
f 104/2/3 92/2/3 103/2/3
f 109/1/3 106/1/3 105/1/3
f 110/1/3 106/1/3 109/1/3
f 111/1/3 108/1/3 107/1/3
f 112/1/3 108/1/3 111/1/3
f 114/1/3 106/1/3 110/1/3
f 115/1/3 114/1/3 113/1/3
f 116/1/3 106/1/3 114/1/3
f 116/1/3 114/1/3 115/1/3
f 118/1/3 106/1/3 116/1/3
f 119/1/3 106/1/3 118/1/3
f 120/9/3 118/9/3 117/9/3
f 120/9/3 119/9/3 118/9/3
f 121/9/3 119/9/3 120/9/3
f 122/7/3 121/7/3 120/7/3
f 123/7/3 121/7/3 122/7/3
f 124/7/3 122/7/3 120/7/3
f 125/9/3 123/9/3 122/9/3
f 125/7/3 122/7/3 124/7/3
f 126/7/3 121/7/3 123/7/3
f 126/9/3 123/9/3 125/9/3
f 127/9/3 119/9/3 121/9/3
f 127/7/3 121/7/3 126/7/3
f 128/9/3 126/9/3 125/9/3
f 128/9/3 125/9/3 124/9/3
f 128/9/3 127/9/3 126/9/3
f 129/1/3 106/1/3 119/1/3
f 129/9/3 127/9/3 128/9/3
f 129/9/3 119/9/3 127/9/3
f 130/8/3 112/8/3 111/8/3
f 130/1/3 111/1/3 107/1/3
f 131/1/3 108/1/3 112/1/3
f 131/8/3 112/8/3 130/8/3
f 132/1/3 129/1/3 128/1/3
f 133/1/3 106/1/3 129/1/3
f 133/1/3 129/1/3 132/1/3
f 134/1/3 130/1/3 107/1/3
f 134/1/3 131/1/3 130/1/3
f 135/1/3 108/1/3 131/1/3
f 135/1/3 131/1/3 134/1/3
f 138/3/3 137/3/3 136/3/3
f 139/3/3 137/3/3 138/3/3
f 142/3/3 141/3/3 140/3/3
f 143/3/3 141/3/3 142/3/3
f 146/3/3 145/3/3 144/3/3
f 147/3/3 145/3/3 146/3/3
f 150/3/3 149/3/3 148/3/3
f 151/3/3 149/3/3 150/3/3
f 152/1/4 153/1/4 154/1/4
f 154/1/4 153/1/4 155/1/4
f 156/3/4 157/3/4 158/3/4
f 158/3/4 157/3/4 159/3/4
f 160/3/4 161/3/4 162/3/4
f 162/3/4 161/3/4 163/3/4
f 164/3/4 165/3/4 166/3/4
f 166/3/4 165/3/4 167/3/4
f 168/3/4 169/3/4 170/3/4
f 170/3/4 169/3/4 171/3/4
f 172/1/4 173/1/4 176/1/4
f 176/1/4 173/1/4 177/1/4
f 174/1/4 175/1/4 178/1/4
f 178/1/4 175/1/4 179/1/4
f 180/5/4 181/5/4 184/5/4
f 181/6/4 182/6/4 185/6/4
f 184/5/4 181/5/4 185/5/4
f 182/2/4 183/2/4 186/2/4
f 185/6/4 182/6/4 186/6/4
f 186/2/4 183/2/4 187/2/4
f 193/10/5 189/10/5 188/10/5
f 194/10/5 189/10/5 193/10/5
f 195/10/5 191/10/5 190/10/5
f 196/10/5 191/10/5 195/10/5
f 201/1/5 194/1/5 193/1/5
f 201/1/5 193/1/5 192/1/5
f 201/1/5 195/1/5 194/1/5
f 201/1/5 196/1/5 195/1/5
f 202/9/5 197/9/5 196/9/5
f 202/1/5 196/1/5 201/1/5
f 203/7/5 198/7/5 197/7/5
f 203/9/5 197/9/5 202/9/5
f 204/9/5 199/9/5 198/9/5
f 204/7/5 198/7/5 203/7/5
f 205/1/5 200/1/5 199/1/5
f 205/9/5 199/9/5 204/9/5
f 206/1/5 200/1/5 205/1/5
f 209/3/5 208/3/5 207/3/5
f 210/3/5 208/3/5 209/3/5
f 213/3/5 212/3/5 211/3/5
f 214/3/5 212/3/5 213/3/5
f 215/11/5 204/11/5 203/11/5
f 215/11/5 203/11/5 202/11/5
f 215/11/5 202/11/5 201/11/5
f 215/1/5 201/1/5 192/1/5
f 215/11/5 205/11/5 204/11/5
f 215/11/5 206/11/5 205/11/5
f 216/1/5 200/1/5 206/1/5
f 216/11/5 206/11/5 215/11/5
f 217/1/5 215/1/5 192/1/5
f 217/1/5 216/1/5 215/1/5
f 218/1/5 200/1/5 216/1/5
f 218/1/5 216/1/5 217/1/5
f 221/3/5 220/3/5 219/3/5
f 222/3/5 220/3/5 221/3/5
f 223/3/5 221/3/5 219/3/5
f 224/3/5 220/3/5 222/3/5
f 225/3/5 223/3/5 219/3/5
f 225/3/5 224/3/5 223/3/5
f 226/3/5 220/3/5 224/3/5
f 226/3/5 224/3/5 225/3/5
f 229/3/5 228/3/5 227/3/5
f 230/3/5 228/3/5 229/3/5
f 231/3/5 229/3/5 227/3/5
f 232/3/5 228/3/5 230/3/5
f 233/3/5 231/3/5 227/3/5
f 233/3/5 232/3/5 231/3/5
f 234/3/5 228/3/5 232/3/5
f 234/3/5 232/3/5 233/3/5
f 237/5/5 236/5/5 235/5/5
f 238/5/5 236/5/5 237/5/5
f 239/5/5 237/5/5 235/5/5
f 240/5/5 236/5/5 238/5/5
f 241/5/5 239/5/5 235/5/5
f 241/5/5 240/5/5 239/5/5
f 242/5/5 236/5/5 240/5/5
f 242/5/5 240/5/5 241/5/5
f 243/10/6 244/10/6 247/10/6
f 247/10/6 244/10/6 248/10/6
f 245/10/6 246/10/6 249/10/6
f 249/10/6 246/10/6 250/10/6
f 251/3/6 252/3/6 253/3/6
f 253/3/6 252/3/6 254/3/6
f 255/3/6 256/3/6 257/3/6
f 257/3/6 256/3/6 258/3/6
f 259/2/6 260/2/6 261/2/6
f 261/2/6 260/2/6 262/2/6
f 259/2/6 261/2/6 263/2/6
f 262/2/6 260/2/6 264/2/6
f 259/2/6 263/2/6 265/2/6
f 263/2/6 264/2/6 265/2/6
f 264/2/6 260/2/6 266/2/6
f 265/2/6 264/2/6 266/2/6
f 267/1/6 268/1/6 269/1/6
f 269/1/6 268/1/6 270/1/6
f 271/1/6 272/1/6 273/1/6
f 273/1/6 272/1/6 274/1/6
