# MagicaVoxel @ Ephtracy

# material
mtllib Office.mtl
usemtl palette

# normals
vn -1 0 0
vn 1 0 0
vn 0 0 1
vn 0 0 -1
vn 0 -1 0
vn 0 1 0

# texcoords
vt 0.154297 0.5
vt 0.158203 0.5
vt 0.162109 0.5
vt 0.978516 0.5
vt 0.982422 0.5
vt 0.986328 0.5
vt 0.994141 0.5

# verts
v -8 0 5
v -8 0 -5
v -8 11 5
v -8 11 4
v -8 11 -4
v -8 11 -5
v -8 12 4
v -8 12 -4
v 5 11 -1
v 5 11 -4
v 5 12 -1
v 5 12 -4
v -5 11 4
v -5 11 -4
v -5 12 4
v -5 12 -4
v 8 0 5
v 8 0 -5
v 8 2 1
v 8 2 -2
v 8 4 1
v 8 4 -2
v 8 8 1
v 8 8 -2
v 8 10 1
v 8 10 -2
v 8 11 5
v 8 11 -1
v 8 11 -4
v 8 11 -5
v 8 12 -1
v 8 12 -4
v -8 0 5
v -8 11 5
v -7 2 5
v -7 4 5
v -7 8 5
v -7 10 5
v -5 2 5
v -5 4 5
v -5 8 5
v -5 10 5
v -2 0 5
v -2 4 5
v -2 8 5
v -2 10 5
v 0 1 5
v 0 2 5
v 0 8 5
v 0 10 5
v 1 0 5
v 1 1 5
v 1 2 5
v 1 4 5
v 4 2 5
v 4 4 5
v 4 8 5
v 4 10 5
v 6 2 5
v 6 4 5
v 6 8 5
v 6 10 5
v 8 0 5
v 8 11 5
v -8 11 4
v -8 12 4
v -5 11 4
v -5 12 4
v 5 11 -1
v 5 12 -1
v 8 11 -1
v 8 12 -1
v -8 11 -4
v -8 12 -4
v -5 11 -4
v -5 12 -4
v 5 11 -4
v 5 12 -4
v 8 11 -4
v 8 12 -4
v -8 0 -5
v -8 11 -5
v 8 0 -5
v 8 11 -5
v -8 0 5
v -2 0 5
v 1 0 5
v 8 0 5
v -2 0 4
v 1 0 4
v -8 0 -5
v 8 0 -5
v -8 11 5
v 8 11 5
v -8 11 4
v -5 11 4
v 5 11 -1
v 8 11 -1
v -8 11 -4
v -5 11 -4
v 5 11 -4
v 8 11 -4
v -8 11 -5
v 8 11 -5
v -8 12 4
v -5 12 4
v 5 12 -1
v 8 12 -1
v -8 12 -4
v -5 12 -4
v 5 12 -4
v 8 12 -4

# faces
f 3/6/1 2/6/1 1/6/1
f 4/6/1 2/6/1 3/6/1
f 5/6/1 2/6/1 4/6/1
f 6/6/1 2/6/1 5/6/1
f 7/6/1 5/6/1 4/6/1
f 8/6/1 5/6/1 7/6/1
f 11/6/1 10/6/1 9/6/1
f 12/6/1 10/6/1 11/6/1
f 13/6/2 14/6/2 15/6/2
f 15/6/2 14/6/2 16/6/2
f 17/6/2 18/6/2 19/6/2
f 19/6/2 18/6/2 20/6/2
f 17/6/2 19/6/2 21/6/2
f 19/1/2 20/1/2 21/1/2
f 20/6/2 18/6/2 22/6/2
f 21/1/2 20/1/2 22/1/2
f 17/6/2 21/6/2 23/6/2
f 21/6/2 22/6/2 23/6/2
f 22/6/2 18/6/2 24/6/2
f 23/6/2 22/6/2 24/6/2
f 17/6/2 23/6/2 25/6/2
f 23/2/2 24/2/2 25/2/2
f 24/6/2 18/6/2 26/6/2
f 25/2/2 24/2/2 26/2/2
f 17/6/2 25/6/2 27/6/2
f 25/6/2 26/6/2 27/6/2
f 27/6/2 26/6/2 28/6/2
f 26/6/2 18/6/2 29/6/2
f 28/6/2 26/6/2 29/6/2
f 29/6/2 18/6/2 30/6/2
f 28/6/2 29/6/2 31/6/2
f 31/6/2 29/6/2 32/6/2
f 35/6/3 34/6/3 33/6/3
f 36/6/3 34/6/3 35/6/3
f 37/6/3 34/6/3 36/6/3
f 38/6/3 34/6/3 37/6/3
f 39/6/3 35/6/3 33/6/3
f 39/1/3 36/1/3 35/1/3
f 40/6/3 37/6/3 36/6/3
f 40/1/3 36/1/3 39/1/3
f 41/1/3 38/1/3 37/1/3
f 41/6/3 37/6/3 40/6/3
f 42/6/3 34/6/3 38/6/3
f 42/1/3 38/1/3 41/1/3
f 43/6/3 41/6/3 40/6/3
f 43/6/3 40/6/3 39/6/3
f 43/6/3 42/6/3 41/6/3
f 43/6/3 39/6/3 33/6/3
f 44/6/3 42/6/3 43/6/3
f 45/6/3 42/6/3 44/6/3
f 46/6/3 34/6/3 42/6/3
f 46/6/3 42/6/3 45/6/3
f 47/4/3 44/4/3 43/4/3
f 48/4/3 44/4/3 47/4/3
f 49/6/3 45/6/3 44/6/3
f 49/3/3 46/3/3 45/3/3
f 50/6/3 34/6/3 46/6/3
f 50/3/3 46/3/3 49/3/3
f 51/4/3 47/4/3 43/4/3
f 52/7/3 48/7/3 47/7/3
f 52/4/3 47/4/3 51/4/3
f 53/4/3 44/4/3 48/4/3
f 53/7/3 48/7/3 52/7/3
f 54/6/3 49/6/3 44/6/3
f 54/4/3 44/4/3 53/4/3
f 54/6/3 50/6/3 49/6/3
f 55/6/3 52/6/3 51/6/3
f 55/6/3 53/6/3 52/6/3
f 55/6/3 54/6/3 53/6/3
f 56/6/3 50/6/3 54/6/3
f 56/6/3 54/6/3 55/6/3
f 57/6/3 50/6/3 56/6/3
f 58/6/3 34/6/3 50/6/3
f 58/6/3 50/6/3 57/6/3
f 59/6/3 55/6/3 51/6/3
f 59/1/3 56/1/3 55/1/3
f 60/6/3 57/6/3 56/6/3
f 60/1/3 56/1/3 59/1/3
f 61/5/3 58/5/3 57/5/3
f 61/6/3 57/6/3 60/6/3
f 62/6/3 34/6/3 58/6/3
f 62/5/3 58/5/3 61/5/3
f 63/6/3 61/6/3 60/6/3
f 63/6/3 59/6/3 51/6/3
f 63/6/3 62/6/3 61/6/3
f 63/6/3 60/6/3 59/6/3
f 64/6/3 34/6/3 62/6/3
f 64/6/3 62/6/3 63/6/3
f 67/6/3 66/6/3 65/6/3
f 68/6/3 66/6/3 67/6/3
f 71/6/3 70/6/3 69/6/3
f 72/6/3 70/6/3 71/6/3
f 73/6/4 74/6/4 75/6/4
f 75/6/4 74/6/4 76/6/4
f 77/6/4 78/6/4 79/6/4
f 79/6/4 78/6/4 80/6/4
f 81/6/4 82/6/4 83/6/4
f 83/6/4 82/6/4 84/6/4
f 89/6/5 86/6/5 85/6/5
f 89/4/5 87/4/5 86/4/5
f 90/6/5 88/6/5 87/6/5
f 90/4/5 87/4/5 89/4/5
f 91/6/5 89/6/5 85/6/5
f 91/6/5 90/6/5 89/6/5
f 92/6/5 88/6/5 90/6/5
f 92/6/5 90/6/5 91/6/5
f 93/6/6 94/6/6 95/6/6
f 95/6/6 94/6/6 96/6/6
f 96/6/6 94/6/6 97/6/6
f 97/6/6 94/6/6 98/6/6
f 96/6/6 97/6/6 100/6/6
f 100/6/6 97/6/6 101/6/6
f 99/6/6 100/6/6 103/6/6
f 101/6/6 102/6/6 103/6/6
f 100/6/6 101/6/6 103/6/6
f 103/6/6 102/6/6 104/6/6
f 105/6/6 106/6/6 109/6/6
f 109/6/6 106/6/6 110/6/6
f 107/6/6 108/6/6 111/6/6
f 111/6/6 108/6/6 112/6/6
