# MagicaVoxel @ Ephtracy

# material
mtllib Sport.mtl
usemtl palette

# normals
vn -1 0 0
vn 1 0 0
vn 0 0 1
vn 0 0 -1
vn 0 -1 0
vn 0 1 0

# texcoords
vt 0.373047 0.5
vt 0.537109 0.5
vt 0.958984 0.5
vt 0.974609 0.5
vt 0.986328 0.5

# verts
v -9 0 6
v -9 0 -6
v -9 1 6
v -9 1 -6
v -8 1 1
v -8 1 -1
v -8 7 2
v -8 7 1
v -8 7 -1
v -8 7 -2
v -8 9 2
v -8 9 -2
v 5 6 1
v 5 6 -1
v 5 7 1
v 5 7 -1
v 7 1 1
v 7 1 -1
v 7 6 1
v 7 6 -1
v 7 7 2
v 7 7 1
v 7 7 -1
v 7 7 -2
v 7 9 2
v 7 9 -2
v -7 1 1
v -7 1 -1
v -7 6 1
v -7 6 -1
v -7 7 2
v -7 7 1
v -7 7 -1
v -7 7 -2
v -7 9 2
v -7 9 -2
v -5 6 1
v -5 6 -1
v -5 7 1
v -5 7 -1
v 8 1 1
v 8 1 -1
v 8 7 2
v 8 7 1
v 8 7 -1
v 8 7 -2
v 8 9 2
v 8 9 -2
v 9 0 6
v 9 0 -6
v 9 1 6
v 9 1 -6
v -9 0 6
v -9 1 6
v 9 0 6
v 9 1 6
v -8 7 2
v -8 9 2
v -7 7 2
v -7 9 2
v 7 7 2
v 7 9 2
v 8 7 2
v 8 9 2
v -8 1 1
v -8 7 1
v -7 1 1
v -7 6 1
v -7 7 1
v -5 6 1
v -5 7 1
v 5 6 1
v 5 7 1
v 7 1 1
v 7 6 1
v 7 7 1
v 8 1 1
v 8 7 1
v -8 1 -1
v -8 7 -1
v -7 1 -1
v -7 6 -1
v -7 7 -1
v -5 6 -1
v -5 7 -1
v 5 6 -1
v 5 7 -1
v 7 1 -1
v 7 6 -1
v 7 7 -1
v 8 1 -1
v 8 7 -1
v -8 7 -2
v -8 9 -2
v -7 7 -2
v -7 9 -2
v 7 7 -2
v 7 9 -2
v 8 7 -2
v 8 9 -2
v -9 0 -6
v -9 1 -6
v 9 0 -6
v 9 1 -6
v -9 0 6
v 9 0 6
v -8 0 5
v 8 0 5
v -7 0 4
v -1 0 4
v 0 0 4
v 7 0 4
v -7 0 2
v -5 0 2
v -3 0 2
v -1 0 2
v 0 0 2
v 2 0 2
v 5 0 2
v 7 0 2
v -7 0 1
v -6 0 1
v -2 0 1
v -1 0 1
v 0 0 1
v 1 0 1
v 6 0 1
v 7 0 1
v -7 0 -1
v -6 0 -1
v -2 0 -1
v -1 0 -1
v 0 0 -1
v 1 0 -1
v 6 0 -1
v 7 0 -1
v -7 0 -2
v -5 0 -2
v -3 0 -2
v -1 0 -2
v 0 0 -2
v 2 0 -2
v 5 0 -2
v 7 0 -2
v -7 0 -4
v -1 0 -4
v 0 0 -4
v 7 0 -4
v -8 0 -5
v 8 0 -5
v -9 0 -6
v 9 0 -6
v -7 6 1
v -5 6 1
v 5 6 1
v 7 6 1
v -7 6 -1
v -5 6 -1
v 5 6 -1
v 7 6 -1
v -8 7 2
v -7 7 2
v 7 7 2
v 8 7 2
v -8 7 1
v -7 7 1
v 7 7 1
v 8 7 1
v -8 7 -1
v -7 7 -1
v 7 7 -1
v 8 7 -1
v -8 7 -2
v -7 7 -2
v 7 7 -2
v 8 7 -2
v -9 1 6
v 9 1 6
v -8 1 5
v 8 1 5
v -7 1 4
v -1 1 4
v 0 1 4
v 7 1 4
v -7 1 2
v -5 1 2
v -3 1 2
v -1 1 2
v 0 1 2
v 2 1 2
v 5 1 2
v 7 1 2
v -8 1 1
v -7 1 1
v -6 1 1
v -2 1 1
v -1 1 1
v 0 1 1
v 1 1 1
v 6 1 1
v 7 1 1
v 8 1 1
v -8 1 -1
v -7 1 -1
v -6 1 -1
v -2 1 -1
v -1 1 -1
v 0 1 -1
v 1 1 -1
v 6 1 -1
v 7 1 -1
v 8 1 -1
v -7 1 -2
v -5 1 -2
v -3 1 -2
v -1 1 -2
v 0 1 -2
v 2 1 -2
v 5 1 -2
v 7 1 -2
v -7 1 -4
v -1 1 -4
v 0 1 -4
v 7 1 -4
v -8 1 -5
v 8 1 -5
v -9 1 -6
v 9 1 -6
v -7 7 1
v -5 7 1
v 5 7 1
v 7 7 1
v -7 7 -1
v -5 7 -1
v 5 7 -1
v 7 7 -1
v -8 9 2
v -7 9 2
v 7 9 2
v 8 9 2
v -8 9 -2
v -7 9 -2
v 7 9 -2
v 8 9 -2

# faces
f 3/2/1 2/2/1 1/2/1
f 4/2/1 2/2/1 3/2/1
f 8/5/1 6/5/1 5/5/1
f 9/5/1 6/5/1 8/5/1
f 11/4/1 8/4/1 7/4/1
f 11/4/1 10/4/1 9/4/1
f 11/4/1 9/4/1 8/4/1
f 12/4/1 10/4/1 11/4/1
f 15/3/1 14/3/1 13/3/1
f 16/3/1 14/3/1 15/3/1
f 19/5/1 18/5/1 17/5/1
f 20/5/1 18/5/1 19/5/1
f 25/4/1 23/4/1 22/4/1
f 25/4/1 24/4/1 23/4/1
f 25/4/1 22/4/1 21/4/1
f 26/4/1 24/4/1 25/4/1
f 27/5/2 28/5/2 29/5/2
f 29/5/2 28/5/2 30/5/2
f 32/4/2 33/4/2 35/4/2
f 33/4/2 34/4/2 35/4/2
f 31/4/2 32/4/2 35/4/2
f 35/4/2 34/4/2 36/4/2
f 37/3/2 38/3/2 39/3/2
f 39/3/2 38/3/2 40/3/2
f 41/5/2 42/5/2 44/5/2
f 44/5/2 42/5/2 45/5/2
f 43/4/2 44/4/2 47/4/2
f 45/4/2 46/4/2 47/4/2
f 44/4/2 45/4/2 47/4/2
f 47/4/2 46/4/2 48/4/2
f 49/2/2 50/2/2 51/2/2
f 51/2/2 50/2/2 52/2/2
f 55/2/3 54/2/3 53/2/3
f 56/2/3 54/2/3 55/2/3
f 59/4/3 58/4/3 57/4/3
f 60/4/3 58/4/3 59/4/3
f 63/4/3 62/4/3 61/4/3
f 64/4/3 62/4/3 63/4/3
f 67/5/3 66/5/3 65/5/3
f 68/5/3 66/5/3 67/5/3
f 69/5/3 66/5/3 68/5/3
f 70/3/3 69/3/3 68/3/3
f 71/3/3 69/3/3 70/3/3
f 75/3/3 73/3/3 72/3/3
f 76/3/3 73/3/3 75/3/3
f 77/5/3 75/5/3 74/5/3
f 77/5/3 76/5/3 75/5/3
f 78/5/3 76/5/3 77/5/3
f 79/5/4 80/5/4 81/5/4
f 81/5/4 80/5/4 82/5/4
f 82/5/4 80/5/4 83/5/4
f 82/3/4 83/3/4 84/3/4
f 84/3/4 83/3/4 85/3/4
f 86/3/4 87/3/4 89/3/4
f 89/3/4 87/3/4 90/3/4
f 88/5/4 89/5/4 91/5/4
f 89/5/4 90/5/4 91/5/4
f 91/5/4 90/5/4 92/5/4
f 93/4/4 94/4/4 95/4/4
f 95/4/4 94/4/4 96/4/4
f 97/4/4 98/4/4 99/4/4
f 99/4/4 98/4/4 100/4/4
f 101/2/4 102/2/4 103/2/4
f 103/2/4 102/2/4 104/2/4
f 107/2/5 106/2/5 105/2/5
f 108/2/5 106/2/5 107/2/5
f 109/3/5 108/3/5 107/3/5
f 110/3/5 108/3/5 109/3/5
f 111/3/5 108/3/5 110/3/5
f 112/3/5 108/3/5 111/3/5
f 113/3/5 109/3/5 107/3/5
f 113/1/5 110/1/5 109/1/5
f 114/1/5 110/1/5 113/1/5
f 115/1/5 110/1/5 114/1/5
f 116/3/5 111/3/5 110/3/5
f 116/1/5 110/1/5 115/1/5
f 117/1/5 112/1/5 111/1/5
f 117/3/5 111/3/5 116/3/5
f 118/1/5 112/1/5 117/1/5
f 119/1/5 112/1/5 118/1/5
f 120/3/5 108/3/5 112/3/5
f 120/1/5 112/1/5 119/1/5
f 121/3/5 113/3/5 107/3/5
f 121/3/5 114/3/5 113/3/5
f 122/3/5 114/3/5 121/3/5
f 123/3/5 116/3/5 115/3/5
f 123/3/5 117/3/5 116/3/5
f 123/3/5 118/3/5 117/3/5
f 124/3/5 118/3/5 123/3/5
f 125/3/5 118/3/5 124/3/5
f 126/3/5 118/3/5 125/3/5
f 127/3/5 120/3/5 119/3/5
f 128/3/5 108/3/5 120/3/5
f 128/3/5 120/3/5 127/3/5
f 129/1/5 122/1/5 121/1/5
f 129/3/5 121/3/5 107/3/5
f 130/3/5 114/3/5 122/3/5
f 130/1/5 122/1/5 129/1/5
f 131/3/5 123/3/5 115/3/5
f 131/1/5 124/1/5 123/1/5
f 132/3/5 125/3/5 124/3/5
f 132/1/5 124/1/5 131/1/5
f 133/1/5 126/1/5 125/1/5
f 133/3/5 125/3/5 132/3/5
f 134/3/5 118/3/5 126/3/5
f 134/1/5 126/1/5 133/1/5
f 135/3/5 127/3/5 119/3/5
f 135/1/5 128/1/5 127/1/5
f 136/3/5 108/3/5 128/3/5
f 136/1/5 128/1/5 135/1/5
f 137/3/5 129/3/5 107/3/5
f 137/3/5 130/3/5 129/3/5
f 138/1/5 115/1/5 114/1/5
f 138/3/5 130/3/5 137/3/5
f 138/3/5 114/3/5 130/3/5
f 139/3/5 133/3/5 132/3/5
f 139/1/5 115/1/5 138/1/5
f 139/3/5 134/3/5 133/3/5
f 139/3/5 131/3/5 115/3/5
f 139/3/5 132/3/5 131/3/5
f 140/3/5 134/3/5 139/3/5
f 141/3/5 134/3/5 140/3/5
f 142/1/5 119/1/5 118/1/5
f 142/3/5 134/3/5 141/3/5
f 142/3/5 118/3/5 134/3/5
f 143/3/5 135/3/5 119/3/5
f 143/1/5 119/1/5 142/1/5
f 143/3/5 136/3/5 135/3/5
f 144/3/5 108/3/5 136/3/5
f 144/3/5 136/3/5 143/3/5
f 145/3/5 137/3/5 107/3/5
f 145/1/5 140/1/5 139/1/5
f 145/1/5 138/1/5 137/1/5
f 145/1/5 139/1/5 138/1/5
f 146/3/5 141/3/5 140/3/5
f 146/1/5 140/1/5 145/1/5
f 147/1/5 143/1/5 142/1/5
f 147/3/5 141/3/5 146/3/5
f 147/1/5 144/1/5 143/1/5
f 147/1/5 142/1/5 141/1/5
f 148/3/5 108/3/5 144/3/5
f 148/1/5 144/1/5 147/1/5
f 149/2/5 107/2/5 105/2/5
f 149/3/5 145/3/5 107/3/5
f 149/3/5 148/3/5 147/3/5
f 149/3/5 147/3/5 146/3/5
f 149/3/5 146/3/5 145/3/5
f 150/3/5 108/3/5 148/3/5
f 150/3/5 148/3/5 149/3/5
f 150/2/5 106/2/5 108/2/5
f 151/2/5 149/2/5 105/2/5
f 151/2/5 150/2/5 149/2/5
f 152/2/5 106/2/5 150/2/5
f 152/2/5 150/2/5 151/2/5
f 157/3/5 154/3/5 153/3/5
f 158/3/5 154/3/5 157/3/5
f 159/3/5 156/3/5 155/3/5
f 160/3/5 156/3/5 159/3/5
f 165/4/5 162/4/5 161/4/5
f 166/4/5 162/4/5 165/4/5
f 167/4/5 164/4/5 163/4/5
f 168/4/5 164/4/5 167/4/5
f 173/4/5 170/4/5 169/4/5
f 174/4/5 170/4/5 173/4/5
f 175/4/5 172/4/5 171/4/5
f 176/4/5 172/4/5 175/4/5
f 177/2/6 178/2/6 179/2/6
f 179/2/6 178/2/6 180/2/6
f 179/3/6 180/3/6 181/3/6
f 181/3/6 180/3/6 182/3/6
f 182/3/6 180/3/6 183/3/6
f 183/3/6 180/3/6 184/3/6
f 179/3/6 181/3/6 185/3/6
f 181/1/6 182/1/6 185/1/6
f 185/1/6 182/1/6 186/1/6
f 186/1/6 182/1/6 187/1/6
f 182/3/6 183/3/6 188/3/6
f 187/1/6 182/1/6 188/1/6
f 183/1/6 184/1/6 189/1/6
f 188/3/6 183/3/6 189/3/6
f 189/1/6 184/1/6 190/1/6
f 190/1/6 184/1/6 191/1/6
f 184/3/6 180/3/6 192/3/6
f 191/1/6 184/1/6 192/1/6
f 177/2/6 179/2/6 193/2/6
f 179/3/6 185/3/6 193/3/6
f 185/3/6 186/3/6 193/3/6
f 193/3/6 186/3/6 194/3/6
f 194/3/6 186/3/6 195/3/6
f 187/3/6 188/3/6 196/3/6
f 189/3/6 190/3/6 196/3/6
f 188/3/6 189/3/6 196/3/6
f 196/3/6 190/3/6 197/3/6
f 197/3/6 190/3/6 198/3/6
f 198/3/6 190/3/6 199/3/6
f 191/3/6 192/3/6 200/3/6
f 192/3/6 180/3/6 201/3/6
f 200/3/6 192/3/6 201/3/6
f 180/2/6 178/2/6 202/2/6
f 201/3/6 180/3/6 202/3/6
f 177/2/6 193/2/6 203/2/6
f 194/1/6 195/1/6 204/1/6
f 195/3/6 186/3/6 205/3/6
f 204/1/6 195/1/6 205/1/6
f 187/3/6 196/3/6 206/3/6
f 196/1/6 197/1/6 206/1/6
f 197/3/6 198/3/6 207/3/6
f 206/1/6 197/1/6 207/1/6
f 198/1/6 199/1/6 208/1/6
f 207/3/6 198/3/6 208/3/6
f 199/3/6 190/3/6 209/3/6
f 208/1/6 199/1/6 209/1/6
f 191/3/6 200/3/6 210/3/6
f 200/1/6 201/1/6 210/1/6
f 210/1/6 201/1/6 211/1/6
f 202/2/6 178/2/6 212/2/6
f 203/3/6 204/3/6 213/3/6
f 204/3/6 205/3/6 213/3/6
f 186/1/6 187/1/6 214/1/6
f 213/3/6 205/3/6 214/3/6
f 205/3/6 186/3/6 214/3/6
f 208/3/6 209/3/6 215/3/6
f 214/1/6 187/1/6 215/1/6
f 207/3/6 208/3/6 215/3/6
f 206/3/6 207/3/6 215/3/6
f 187/3/6 206/3/6 215/3/6
f 215/3/6 209/3/6 216/3/6
f 216/3/6 209/3/6 217/3/6
f 209/3/6 190/3/6 218/3/6
f 217/3/6 209/3/6 218/3/6
f 190/1/6 191/1/6 218/1/6
f 211/3/6 212/3/6 219/3/6
f 218/1/6 191/1/6 219/1/6
f 191/3/6 210/3/6 219/3/6
f 210/3/6 211/3/6 219/3/6
f 219/3/6 212/3/6 220/3/6
f 213/1/6 214/1/6 221/1/6
f 215/1/6 216/1/6 221/1/6
f 203/3/6 213/3/6 221/3/6
f 214/1/6 215/1/6 221/1/6
f 216/3/6 217/3/6 222/3/6
f 221/1/6 216/1/6 222/1/6
f 219/1/6 220/1/6 223/1/6
f 222/3/6 217/3/6 223/3/6
f 217/1/6 218/1/6 223/1/6
f 218/1/6 219/1/6 223/1/6
f 220/3/6 212/3/6 224/3/6
f 223/1/6 220/1/6 224/1/6
f 203/3/6 221/3/6 225/3/6
f 222/3/6 223/3/6 225/3/6
f 223/3/6 224/3/6 225/3/6
f 177/2/6 203/2/6 225/2/6
f 221/3/6 222/3/6 225/3/6
f 224/3/6 212/3/6 226/3/6
f 225/3/6 224/3/6 226/3/6
f 212/2/6 178/2/6 226/2/6
f 177/2/6 225/2/6 227/2/6
f 225/2/6 226/2/6 227/2/6
f 226/2/6 178/2/6 228/2/6
f 227/2/6 226/2/6 228/2/6
f 229/3/6 230/3/6 233/3/6
f 233/3/6 230/3/6 234/3/6
f 231/3/6 232/3/6 235/3/6
f 235/3/6 232/3/6 236/3/6
f 237/4/6 238/4/6 241/4/6
f 241/4/6 238/4/6 242/4/6
f 239/4/6 240/4/6 243/4/6
f 243/4/6 240/4/6 244/4/6
