# MagicaVoxel @ Ephtracy

# material
mtllib Cinema.mtl
usemtl palette

# normals
vn -1 0 0
vn 1 0 0
vn 0 0 1
vn 0 0 -1
vn 0 -1 0
vn 0 1 0

# texcoords
vt 0.0449219 0.5
vt 0.587891 0.5
vt 0.619141 0.5
vt 0.833984 0.5
vt 0.861328 0.5
vt 0.896484 0.5
vt 0.931641 0.5
vt 0.966797 0.5
vt 0.978516 0.5
vt 0.982422 0.5
vt 0.986328 0.5
vt 0.990234 0.5
vt 0.994141 0.5

# verts
v -8 0 5
v -8 0 -5
v -8 7 5
v -8 7 -5
v -8 9 5
v -8 9 -5
v -8 11 5
v -8 11 -5
v 8 0 5
v 8 0 -5
v 8 2 4
v 8 2 2
v 8 2 1
v 8 2 -1
v 8 2 -2
v 8 2 -4
v 8 5 4
v 8 5 2
v 8 5 1
v 8 5 -1
v 8 5 -2
v 8 5 -4
v 8 7 5
v 8 7 -5
v 8 9 5
v 8 9 -5
v 8 11 5
v 8 11 -5
v -8 0 5
v -8 7 5
v -8 9 5
v -8 11 5
v -6 2 5
v -6 5 5
v -6 6 5
v -6 7 5
v -6 9 5
v -6 10 5
v -4 2 5
v -4 5 5
v -2 0 5
v -2 4 5
v 0 1 5
v 0 2 5
v 1 0 5
v 1 1 5
v 1 2 5
v 1 4 5
v 2 2 5
v 2 5 5
v 4 2 5
v 4 5 5
v 5 2 5
v 5 5 5
v 6 6 5
v 6 7 5
v 6 9 5
v 6 10 5
v 7 2 5
v 7 5 5
v 8 0 5
v 8 7 5
v 8 9 5
v 8 11 5
v -8 0 -5
v -8 7 -5
v -8 9 -5
v -8 11 -5
v 8 0 -5
v 8 7 -5
v 8 9 -5
v 8 11 -5
v -8 0 5
v -2 0 5
v 1 0 5
v 8 0 5
v -5 0 4
v -2 0 4
v 1 0 4
v 7 0 4
v -5 0 -4
v 7 0 -4
v -8 0 -5
v 8 0 -5
v -8 11 5
v 8 11 5
v -7 11 4
v 7 11 4
v -6 11 3
v 6 11 3
v -6 11 2
v -5 11 2
v -4 11 2
v -3 11 2
v -2 11 2
v -1 11 2
v 0 11 2
v 1 11 2
v 2 11 2
v 3 11 2
v 4 11 2
v 6 11 2
v -6 11 -2
v -5 11 -2
v -4 11 -2
v -3 11 -2
v -2 11 -2
v -1 11 -2
v 0 11 -2
v 1 11 -2
v 2 11 -2
v 3 11 -2
v 4 11 -2
v 6 11 -2
v -6 11 -3
v 6 11 -3
v -7 11 -4
v 7 11 -4
v -8 11 -5
v 8 11 -5

# faces
f 3/12/1 2/12/1 1/12/1
f 4/12/1 2/12/1 3/12/1
f 5/1/1 4/1/1 3/1/1
f 6/1/1 4/1/1 5/1/1
f 7/5/1 6/5/1 5/5/1
f 8/5/1 6/5/1 7/5/1
f 9/12/2 10/12/2 11/12/2
f 11/12/2 10/12/2 12/12/2
f 12/12/2 10/12/2 13/12/2
f 13/12/2 10/12/2 14/12/2
f 14/12/2 10/12/2 15/12/2
f 15/12/2 10/12/2 16/12/2
f 9/12/2 11/12/2 17/12/2
f 11/6/2 12/6/2 17/6/2
f 12/12/2 13/12/2 18/12/2
f 17/6/2 12/6/2 18/6/2
f 13/8/2 14/8/2 19/8/2
f 18/12/2 13/12/2 19/12/2
f 14/12/2 15/12/2 20/12/2
f 19/8/2 14/8/2 20/8/2
f 15/4/2 16/4/2 21/4/2
f 20/12/2 15/12/2 21/12/2
f 16/12/2 10/12/2 22/12/2
f 21/4/2 16/4/2 22/4/2
f 20/12/2 21/12/2 23/12/2
f 19/12/2 20/12/2 23/12/2
f 21/12/2 22/12/2 23/12/2
f 18/12/2 19/12/2 23/12/2
f 17/12/2 18/12/2 23/12/2
f 9/12/2 17/12/2 23/12/2
f 22/12/2 10/12/2 24/12/2
f 23/12/2 22/12/2 24/12/2
f 23/1/2 24/1/2 25/1/2
f 25/1/2 24/1/2 26/1/2
f 25/5/2 26/5/2 27/5/2
f 27/5/2 26/5/2 28/5/2
f 33/12/3 30/12/3 29/12/3
f 34/12/3 30/12/3 33/12/3
f 35/12/3 30/12/3 34/12/3
f 36/1/3 31/1/3 30/1/3
f 36/12/3 30/12/3 35/12/3
f 37/5/3 32/5/3 31/5/3
f 37/1/3 31/1/3 36/1/3
f 38/5/3 32/5/3 37/5/3
f 39/12/3 33/12/3 29/12/3
f 39/7/3 34/7/3 33/7/3
f 40/12/3 35/12/3 34/12/3
f 40/7/3 34/7/3 39/7/3
f 41/12/3 39/12/3 29/12/3
f 41/12/3 40/12/3 39/12/3
f 42/12/3 40/12/3 41/12/3
f 43/9/3 42/9/3 41/9/3
f 44/9/3 42/9/3 43/9/3
f 45/9/3 43/9/3 41/9/3
f 46/13/3 44/13/3 43/13/3
f 46/9/3 43/9/3 45/9/3
f 47/9/3 42/9/3 44/9/3
f 47/13/3 44/13/3 46/13/3
f 48/12/3 40/12/3 42/12/3
f 48/9/3 42/9/3 47/9/3
f 49/12/3 47/12/3 46/12/3
f 49/12/3 46/12/3 45/12/3
f 49/12/3 48/12/3 47/12/3
f 50/12/3 35/12/3 40/12/3
f 50/12/3 48/12/3 49/12/3
f 50/12/3 40/12/3 48/12/3
f 51/12/3 49/12/3 45/12/3
f 51/3/3 50/3/3 49/3/3
f 52/12/3 35/12/3 50/12/3
f 52/3/3 50/3/3 51/3/3
f 53/12/3 51/12/3 45/12/3
f 53/12/3 52/12/3 51/12/3
f 54/12/3 35/12/3 52/12/3
f 54/12/3 52/12/3 53/12/3
f 55/10/3 36/10/3 35/10/3
f 55/12/3 35/12/3 54/12/3
f 55/10/3 38/10/3 37/10/3
f 55/10/3 37/10/3 36/10/3
f 56/10/3 38/10/3 55/10/3
f 57/10/3 38/10/3 56/10/3
f 58/5/3 32/5/3 38/5/3
f 58/10/3 38/10/3 57/10/3
f 59/2/3 54/2/3 53/2/3
f 59/12/3 53/12/3 45/12/3
f 60/12/3 55/12/3 54/12/3
f 60/2/3 54/2/3 59/2/3
f 60/12/3 56/12/3 55/12/3
f 61/12/3 59/12/3 45/12/3
f 61/12/3 60/12/3 59/12/3
f 62/1/3 57/1/3 56/1/3
f 62/12/3 60/12/3 61/12/3
f 62/12/3 56/12/3 60/12/3
f 63/5/3 58/5/3 57/5/3
f 63/1/3 57/1/3 62/1/3
f 64/5/3 32/5/3 58/5/3
f 64/5/3 58/5/3 63/5/3
f 65/12/4 66/12/4 69/12/4
f 66/1/4 67/1/4 70/1/4
f 69/12/4 66/12/4 70/12/4
f 67/5/4 68/5/4 71/5/4
f 70/1/4 67/1/4 71/1/4
f 71/5/4 68/5/4 72/5/4
f 77/12/5 74/12/5 73/12/5
f 78/9/5 75/9/5 74/9/5
f 78/12/5 74/12/5 77/12/5
f 79/12/5 76/12/5 75/12/5
f 79/9/5 75/9/5 78/9/5
f 80/12/5 76/12/5 79/12/5
f 81/11/5 78/11/5 77/11/5
f 81/12/5 77/12/5 73/12/5
f 81/11/5 80/11/5 79/11/5
f 81/11/5 79/11/5 78/11/5
f 82/12/5 76/12/5 80/12/5
f 82/11/5 80/11/5 81/11/5
f 83/12/5 81/12/5 73/12/5
f 83/12/5 82/12/5 81/12/5
f 84/12/5 76/12/5 82/12/5
f 84/12/5 82/12/5 83/12/5
f 85/5/6 86/5/6 87/5/6
f 87/5/6 86/5/6 88/5/6
f 87/12/6 88/12/6 89/12/6
f 89/12/6 88/12/6 90/12/6
f 87/12/6 89/12/6 91/12/6
f 89/8/6 90/8/6 91/8/6
f 91/8/6 90/8/6 92/8/6
f 92/8/6 90/8/6 93/8/6
f 93/8/6 90/8/6 94/8/6
f 94/8/6 90/8/6 95/8/6
f 95/8/6 90/8/6 96/8/6
f 96/8/6 90/8/6 97/8/6
f 97/8/6 90/8/6 98/8/6
f 98/8/6 90/8/6 99/8/6
f 99/8/6 90/8/6 100/8/6
f 100/8/6 90/8/6 101/8/6
f 90/12/6 88/12/6 102/12/6
f 101/8/6 90/8/6 102/8/6
f 87/12/6 91/12/6 103/12/6
f 91/12/6 92/12/6 103/12/6
f 92/8/6 93/8/6 104/8/6
f 103/12/6 92/12/6 104/12/6
f 93/12/6 94/12/6 105/12/6
f 104/8/6 93/8/6 105/8/6
f 94/8/6 95/8/6 106/8/6
f 105/12/6 94/12/6 106/12/6
f 95/12/6 96/12/6 107/12/6
f 106/8/6 95/8/6 107/8/6
f 96/8/6 97/8/6 108/8/6
f 107/12/6 96/12/6 108/12/6
f 97/12/6 98/12/6 109/12/6
f 108/8/6 97/8/6 109/8/6
f 98/8/6 99/8/6 110/8/6
f 109/12/6 98/12/6 110/12/6
f 99/12/6 100/12/6 111/12/6
f 110/8/6 99/8/6 111/8/6
f 100/8/6 101/8/6 112/8/6
f 111/12/6 100/12/6 112/12/6
f 101/12/6 102/12/6 113/12/6
f 112/8/6 101/8/6 113/8/6
f 102/12/6 88/12/6 114/12/6
f 113/12/6 102/12/6 114/12/6
f 110/8/6 111/8/6 115/8/6
f 112/8/6 113/8/6 115/8/6
f 113/8/6 114/8/6 115/8/6
f 109/8/6 110/8/6 115/8/6
f 108/8/6 109/8/6 115/8/6
f 107/8/6 108/8/6 115/8/6
f 106/8/6 107/8/6 115/8/6
f 105/8/6 106/8/6 115/8/6
f 104/8/6 105/8/6 115/8/6
f 103/8/6 104/8/6 115/8/6
f 87/12/6 103/12/6 115/12/6
f 111/8/6 112/8/6 115/8/6
f 114/12/6 88/12/6 116/12/6
f 115/8/6 114/8/6 116/8/6
f 85/5/6 87/5/6 117/5/6
f 87/12/6 115/12/6 117/12/6
f 115/12/6 116/12/6 117/12/6
f 116/12/6 88/12/6 118/12/6
f 117/12/6 116/12/6 118/12/6
f 88/5/6 86/5/6 118/5/6
f 85/5/6 117/5/6 119/5/6
f 117/5/6 118/5/6 119/5/6
f 118/5/6 86/5/6 120/5/6
f 119/5/6 118/5/6 120/5/6
